# pedestal side tube (UV-wrapped) R=1.05 HH=0.205 -- myosuite-pedestal-sized
v 1.050000 0.000000 0.205000
v 1.050000 0.000000 -0.205000
v 1.048735 0.051521 0.205000
v 1.048735 0.051521 -0.205000
v 1.044944 0.102918 0.205000
v 1.044944 0.102918 -0.205000
v 1.038635 0.154067 0.205000
v 1.038635 0.154067 -0.205000
v 1.029825 0.204845 0.205000
v 1.029825 0.204845 -0.205000
v 1.018533 0.255129 0.205000
v 1.018533 0.255129 -0.205000
v 1.004787 0.304799 0.205000
v 1.004787 0.304799 -0.205000
v 0.988621 0.353734 0.205000
v 0.988621 0.353734 -0.205000
v 0.970074 0.401818 0.205000
v 0.970074 0.401818 -0.205000
v 0.949189 0.448933 0.205000
v 0.949189 0.448933 -0.205000
v 0.926017 0.494967 0.205000
v 0.926017 0.494967 -0.205000
v 0.900615 0.539808 0.205000
v 0.900615 0.539808 -0.205000
v 0.873043 0.583349 0.205000
v 0.873043 0.583349 -0.205000
v 0.843368 0.625484 0.205000
v 0.843368 0.625484 -0.205000
v 0.811661 0.666113 0.205000
v 0.811661 0.666113 -0.205000
v 0.777999 0.705137 0.205000
v 0.777999 0.705137 -0.205000
v 0.742462 0.742462 0.205000
v 0.742462 0.742462 -0.205000
v 0.705137 0.777999 0.205000
v 0.705137 0.777999 -0.205000
v 0.666113 0.811661 0.205000
v 0.666113 0.811661 -0.205000
v 0.625484 0.843368 0.205000
v 0.625484 0.843368 -0.205000
v 0.583349 0.873043 0.205000
v 0.583349 0.873043 -0.205000
v 0.539808 0.900615 0.205000
v 0.539808 0.900615 -0.205000
v 0.494967 0.926017 0.205000
v 0.494967 0.926017 -0.205000
v 0.448933 0.949189 0.205000
v 0.448933 0.949189 -0.205000
v 0.401818 0.970074 0.205000
v 0.401818 0.970074 -0.205000
v 0.353734 0.988621 0.205000
v 0.353734 0.988621 -0.205000
v 0.304799 1.004787 0.205000
v 0.304799 1.004787 -0.205000
v 0.255129 1.018533 0.205000
v 0.255129 1.018533 -0.205000
v 0.204845 1.029825 0.205000
v 0.204845 1.029825 -0.205000
v 0.154067 1.038635 0.205000
v 0.154067 1.038635 -0.205000
v 0.102918 1.044944 0.205000
v 0.102918 1.044944 -0.205000
v 0.051521 1.048735 0.205000
v 0.051521 1.048735 -0.205000
v 0.000000 1.050000 0.205000
v 0.000000 1.050000 -0.205000
v -0.051521 1.048735 0.205000
v -0.051521 1.048735 -0.205000
v -0.102918 1.044944 0.205000
v -0.102918 1.044944 -0.205000
v -0.154067 1.038635 0.205000
v -0.154067 1.038635 -0.205000
v -0.204845 1.029825 0.205000
v -0.204845 1.029825 -0.205000
v -0.255129 1.018533 0.205000
v -0.255129 1.018533 -0.205000
v -0.304799 1.004787 0.205000
v -0.304799 1.004787 -0.205000
v -0.353734 0.988621 0.205000
v -0.353734 0.988621 -0.205000
v -0.401818 0.970074 0.205000
v -0.401818 0.970074 -0.205000
v -0.448933 0.949189 0.205000
v -0.448933 0.949189 -0.205000
v -0.494967 0.926017 0.205000
v -0.494967 0.926017 -0.205000
v -0.539808 0.900615 0.205000
v -0.539808 0.900615 -0.205000
v -0.583349 0.873043 0.205000
v -0.583349 0.873043 -0.205000
v -0.625484 0.843368 0.205000
v -0.625484 0.843368 -0.205000
v -0.666113 0.811661 0.205000
v -0.666113 0.811661 -0.205000
v -0.705137 0.777999 0.205000
v -0.705137 0.777999 -0.205000
v -0.742462 0.742462 0.205000
v -0.742462 0.742462 -0.205000
v -0.777999 0.705137 0.205000
v -0.777999 0.705137 -0.205000
v -0.811661 0.666113 0.205000
v -0.811661 0.666113 -0.205000
v -0.843368 0.625484 0.205000
v -0.843368 0.625484 -0.205000
v -0.873043 0.583349 0.205000
v -0.873043 0.583349 -0.205000
v -0.900615 0.539808 0.205000
v -0.900615 0.539808 -0.205000
v -0.926017 0.494967 0.205000
v -0.926017 0.494967 -0.205000
v -0.949189 0.448933 0.205000
v -0.949189 0.448933 -0.205000
v -0.970074 0.401818 0.205000
v -0.970074 0.401818 -0.205000
v -0.988621 0.353734 0.205000
v -0.988621 0.353734 -0.205000
v -1.004787 0.304799 0.205000
v -1.004787 0.304799 -0.205000
v -1.018533 0.255129 0.205000
v -1.018533 0.255129 -0.205000
v -1.029825 0.204845 0.205000
v -1.029825 0.204845 -0.205000
v -1.038635 0.154067 0.205000
v -1.038635 0.154067 -0.205000
v -1.044944 0.102918 0.205000
v -1.044944 0.102918 -0.205000
v -1.048735 0.051521 0.205000
v -1.048735 0.051521 -0.205000
v -1.050000 0.000000 0.205000
v -1.050000 0.000000 -0.205000
v -1.048735 -0.051521 0.205000
v -1.048735 -0.051521 -0.205000
v -1.044944 -0.102918 0.205000
v -1.044944 -0.102918 -0.205000
v -1.038635 -0.154067 0.205000
v -1.038635 -0.154067 -0.205000
v -1.029825 -0.204845 0.205000
v -1.029825 -0.204845 -0.205000
v -1.018533 -0.255129 0.205000
v -1.018533 -0.255129 -0.205000
v -1.004787 -0.304799 0.205000
v -1.004787 -0.304799 -0.205000
v -0.988621 -0.353734 0.205000
v -0.988621 -0.353734 -0.205000
v -0.970074 -0.401818 0.205000
v -0.970074 -0.401818 -0.205000
v -0.949189 -0.448933 0.205000
v -0.949189 -0.448933 -0.205000
v -0.926017 -0.494967 0.205000
v -0.926017 -0.494967 -0.205000
v -0.900615 -0.539808 0.205000
v -0.900615 -0.539808 -0.205000
v -0.873043 -0.583349 0.205000
v -0.873043 -0.583349 -0.205000
v -0.843368 -0.625484 0.205000
v -0.843368 -0.625484 -0.205000
v -0.811661 -0.666113 0.205000
v -0.811661 -0.666113 -0.205000
v -0.777999 -0.705137 0.205000
v -0.777999 -0.705137 -0.205000
v -0.742462 -0.742462 0.205000
v -0.742462 -0.742462 -0.205000
v -0.705137 -0.777999 0.205000
v -0.705137 -0.777999 -0.205000
v -0.666113 -0.811661 0.205000
v -0.666113 -0.811661 -0.205000
v -0.625484 -0.843368 0.205000
v -0.625484 -0.843368 -0.205000
v -0.583349 -0.873043 0.205000
v -0.583349 -0.873043 -0.205000
v -0.539808 -0.900615 0.205000
v -0.539808 -0.900615 -0.205000
v -0.494967 -0.926017 0.205000
v -0.494967 -0.926017 -0.205000
v -0.448933 -0.949189 0.205000
v -0.448933 -0.949189 -0.205000
v -0.401818 -0.970074 0.205000
v -0.401818 -0.970074 -0.205000
v -0.353734 -0.988621 0.205000
v -0.353734 -0.988621 -0.205000
v -0.304799 -1.004787 0.205000
v -0.304799 -1.004787 -0.205000
v -0.255129 -1.018533 0.205000
v -0.255129 -1.018533 -0.205000
v -0.204845 -1.029825 0.205000
v -0.204845 -1.029825 -0.205000
v -0.154067 -1.038635 0.205000
v -0.154067 -1.038635 -0.205000
v -0.102918 -1.044944 0.205000
v -0.102918 -1.044944 -0.205000
v -0.051521 -1.048735 0.205000
v -0.051521 -1.048735 -0.205000
v -0.000000 -1.050000 0.205000
v -0.000000 -1.050000 -0.205000
v 0.051521 -1.048735 0.205000
v 0.051521 -1.048735 -0.205000
v 0.102918 -1.044944 0.205000
v 0.102918 -1.044944 -0.205000
v 0.154067 -1.038635 0.205000
v 0.154067 -1.038635 -0.205000
v 0.204845 -1.029825 0.205000
v 0.204845 -1.029825 -0.205000
v 0.255129 -1.018533 0.205000
v 0.255129 -1.018533 -0.205000
v 0.304799 -1.004787 0.205000
v 0.304799 -1.004787 -0.205000
v 0.353734 -0.988621 0.205000
v 0.353734 -0.988621 -0.205000
v 0.401818 -0.970074 0.205000
v 0.401818 -0.970074 -0.205000
v 0.448933 -0.949189 0.205000
v 0.448933 -0.949189 -0.205000
v 0.494967 -0.926017 0.205000
v 0.494967 -0.926017 -0.205000
v 0.539808 -0.900615 0.205000
v 0.539808 -0.900615 -0.205000
v 0.583349 -0.873043 0.205000
v 0.583349 -0.873043 -0.205000
v 0.625484 -0.843368 0.205000
v 0.625484 -0.843368 -0.205000
v 0.666113 -0.811661 0.205000
v 0.666113 -0.811661 -0.205000
v 0.705137 -0.777999 0.205000
v 0.705137 -0.777999 -0.205000
v 0.742462 -0.742462 0.205000
v 0.742462 -0.742462 -0.205000
v 0.777999 -0.705137 0.205000
v 0.777999 -0.705137 -0.205000
v 0.811661 -0.666113 0.205000
v 0.811661 -0.666113 -0.205000
v 0.843368 -0.625484 0.205000
v 0.843368 -0.625484 -0.205000
v 0.873043 -0.583349 0.205000
v 0.873043 -0.583349 -0.205000
v 0.900615 -0.539808 0.205000
v 0.900615 -0.539808 -0.205000
v 0.926017 -0.494967 0.205000
v 0.926017 -0.494967 -0.205000
v 0.949189 -0.448933 0.205000
v 0.949189 -0.448933 -0.205000
v 0.970074 -0.401818 0.205000
v 0.970074 -0.401818 -0.205000
v 0.988621 -0.353734 0.205000
v 0.988621 -0.353734 -0.205000
v 1.004787 -0.304799 0.205000
v 1.004787 -0.304799 -0.205000
v 1.018533 -0.255129 0.205000
v 1.018533 -0.255129 -0.205000
v 1.029825 -0.204845 0.205000
v 1.029825 -0.204845 -0.205000
v 1.038635 -0.154067 0.205000
v 1.038635 -0.154067 -0.205000
v 1.044944 -0.102918 0.205000
v 1.044944 -0.102918 -0.205000
v 1.048735 -0.051521 0.205000
v 1.048735 -0.051521 -0.205000
v 1.050000 -0.000000 0.205000
v 1.050000 -0.000000 -0.205000
vt 0.000000 1.000000
vt 0.000000 0.000000
vt 0.007812 1.000000
vt 0.007812 0.000000
vt 0.015625 1.000000
vt 0.015625 0.000000
vt 0.023438 1.000000
vt 0.023438 0.000000
vt 0.031250 1.000000
vt 0.031250 0.000000
vt 0.039062 1.000000
vt 0.039062 0.000000
vt 0.046875 1.000000
vt 0.046875 0.000000
vt 0.054688 1.000000
vt 0.054688 0.000000
vt 0.062500 1.000000
vt 0.062500 0.000000
vt 0.070312 1.000000
vt 0.070312 0.000000
vt 0.078125 1.000000
vt 0.078125 0.000000
vt 0.085938 1.000000
vt 0.085938 0.000000
vt 0.093750 1.000000
vt 0.093750 0.000000
vt 0.101562 1.000000
vt 0.101562 0.000000
vt 0.109375 1.000000
vt 0.109375 0.000000
vt 0.117188 1.000000
vt 0.117188 0.000000
vt 0.125000 1.000000
vt 0.125000 0.000000
vt 0.132812 1.000000
vt 0.132812 0.000000
vt 0.140625 1.000000
vt 0.140625 0.000000
vt 0.148438 1.000000
vt 0.148438 0.000000
vt 0.156250 1.000000
vt 0.156250 0.000000
vt 0.164062 1.000000
vt 0.164062 0.000000
vt 0.171875 1.000000
vt 0.171875 0.000000
vt 0.179688 1.000000
vt 0.179688 0.000000
vt 0.187500 1.000000
vt 0.187500 0.000000
vt 0.195312 1.000000
vt 0.195312 0.000000
vt 0.203125 1.000000
vt 0.203125 0.000000
vt 0.210938 1.000000
vt 0.210938 0.000000
vt 0.218750 1.000000
vt 0.218750 0.000000
vt 0.226562 1.000000
vt 0.226562 0.000000
vt 0.234375 1.000000
vt 0.234375 0.000000
vt 0.242188 1.000000
vt 0.242188 0.000000
vt 0.250000 1.000000
vt 0.250000 0.000000
vt 0.257812 1.000000
vt 0.257812 0.000000
vt 0.265625 1.000000
vt 0.265625 0.000000
vt 0.273438 1.000000
vt 0.273438 0.000000
vt 0.281250 1.000000
vt 0.281250 0.000000
vt 0.289062 1.000000
vt 0.289062 0.000000
vt 0.296875 1.000000
vt 0.296875 0.000000
vt 0.304688 1.000000
vt 0.304688 0.000000
vt 0.312500 1.000000
vt 0.312500 0.000000
vt 0.320312 1.000000
vt 0.320312 0.000000
vt 0.328125 1.000000
vt 0.328125 0.000000
vt 0.335938 1.000000
vt 0.335938 0.000000
vt 0.343750 1.000000
vt 0.343750 0.000000
vt 0.351562 1.000000
vt 0.351562 0.000000
vt 0.359375 1.000000
vt 0.359375 0.000000
vt 0.367188 1.000000
vt 0.367188 0.000000
vt 0.375000 1.000000
vt 0.375000 0.000000
vt 0.382812 1.000000
vt 0.382812 0.000000
vt 0.390625 1.000000
vt 0.390625 0.000000
vt 0.398438 1.000000
vt 0.398438 0.000000
vt 0.406250 1.000000
vt 0.406250 0.000000
vt 0.414062 1.000000
vt 0.414062 0.000000
vt 0.421875 1.000000
vt 0.421875 0.000000
vt 0.429688 1.000000
vt 0.429688 0.000000
vt 0.437500 1.000000
vt 0.437500 0.000000
vt 0.445312 1.000000
vt 0.445312 0.000000
vt 0.453125 1.000000
vt 0.453125 0.000000
vt 0.460938 1.000000
vt 0.460938 0.000000
vt 0.468750 1.000000
vt 0.468750 0.000000
vt 0.476562 1.000000
vt 0.476562 0.000000
vt 0.484375 1.000000
vt 0.484375 0.000000
vt 0.492188 1.000000
vt 0.492188 0.000000
vt 0.500000 1.000000
vt 0.500000 0.000000
vt 0.507812 1.000000
vt 0.507812 0.000000
vt 0.515625 1.000000
vt 0.515625 0.000000
vt 0.523438 1.000000
vt 0.523438 0.000000
vt 0.531250 1.000000
vt 0.531250 0.000000
vt 0.539062 1.000000
vt 0.539062 0.000000
vt 0.546875 1.000000
vt 0.546875 0.000000
vt 0.554688 1.000000
vt 0.554688 0.000000
vt 0.562500 1.000000
vt 0.562500 0.000000
vt 0.570312 1.000000
vt 0.570312 0.000000
vt 0.578125 1.000000
vt 0.578125 0.000000
vt 0.585938 1.000000
vt 0.585938 0.000000
vt 0.593750 1.000000
vt 0.593750 0.000000
vt 0.601562 1.000000
vt 0.601562 0.000000
vt 0.609375 1.000000
vt 0.609375 0.000000
vt 0.617188 1.000000
vt 0.617188 0.000000
vt 0.625000 1.000000
vt 0.625000 0.000000
vt 0.632812 1.000000
vt 0.632812 0.000000
vt 0.640625 1.000000
vt 0.640625 0.000000
vt 0.648438 1.000000
vt 0.648438 0.000000
vt 0.656250 1.000000
vt 0.656250 0.000000
vt 0.664062 1.000000
vt 0.664062 0.000000
vt 0.671875 1.000000
vt 0.671875 0.000000
vt 0.679688 1.000000
vt 0.679688 0.000000
vt 0.687500 1.000000
vt 0.687500 0.000000
vt 0.695312 1.000000
vt 0.695312 0.000000
vt 0.703125 1.000000
vt 0.703125 0.000000
vt 0.710938 1.000000
vt 0.710938 0.000000
vt 0.718750 1.000000
vt 0.718750 0.000000
vt 0.726562 1.000000
vt 0.726562 0.000000
vt 0.734375 1.000000
vt 0.734375 0.000000
vt 0.742188 1.000000
vt 0.742188 0.000000
vt 0.750000 1.000000
vt 0.750000 0.000000
vt 0.757812 1.000000
vt 0.757812 0.000000
vt 0.765625 1.000000
vt 0.765625 0.000000
vt 0.773438 1.000000
vt 0.773438 0.000000
vt 0.781250 1.000000
vt 0.781250 0.000000
vt 0.789062 1.000000
vt 0.789062 0.000000
vt 0.796875 1.000000
vt 0.796875 0.000000
vt 0.804688 1.000000
vt 0.804688 0.000000
vt 0.812500 1.000000
vt 0.812500 0.000000
vt 0.820312 1.000000
vt 0.820312 0.000000
vt 0.828125 1.000000
vt 0.828125 0.000000
vt 0.835938 1.000000
vt 0.835938 0.000000
vt 0.843750 1.000000
vt 0.843750 0.000000
vt 0.851562 1.000000
vt 0.851562 0.000000
vt 0.859375 1.000000
vt 0.859375 0.000000
vt 0.867188 1.000000
vt 0.867188 0.000000
vt 0.875000 1.000000
vt 0.875000 0.000000
vt 0.882812 1.000000
vt 0.882812 0.000000
vt 0.890625 1.000000
vt 0.890625 0.000000
vt 0.898438 1.000000
vt 0.898438 0.000000
vt 0.906250 1.000000
vt 0.906250 0.000000
vt 0.914062 1.000000
vt 0.914062 0.000000
vt 0.921875 1.000000
vt 0.921875 0.000000
vt 0.929688 1.000000
vt 0.929688 0.000000
vt 0.937500 1.000000
vt 0.937500 0.000000
vt 0.945312 1.000000
vt 0.945312 0.000000
vt 0.953125 1.000000
vt 0.953125 0.000000
vt 0.960938 1.000000
vt 0.960938 0.000000
vt 0.968750 1.000000
vt 0.968750 0.000000
vt 0.976562 1.000000
vt 0.976562 0.000000
vt 0.984375 1.000000
vt 0.984375 0.000000
vt 0.992188 1.000000
vt 0.992188 0.000000
vt 1.000000 1.000000
vt 1.000000 0.000000
vn 1.000000 0.000000 0.000000
vn 0.998795 0.049068 0.000000
vn 0.995185 0.098017 0.000000
vn 0.989177 0.146730 0.000000
vn 0.980785 0.195090 0.000000
vn 0.970031 0.242980 0.000000
vn 0.956940 0.290285 0.000000
vn 0.941544 0.336890 0.000000
vn 0.923880 0.382683 0.000000
vn 0.903989 0.427555 0.000000
vn 0.881921 0.471397 0.000000
vn 0.857729 0.514103 0.000000
vn 0.831470 0.555570 0.000000
vn 0.803208 0.595699 0.000000
vn 0.773010 0.634393 0.000000
vn 0.740951 0.671559 0.000000
vn 0.707107 0.707107 0.000000
vn 0.671559 0.740951 0.000000
vn 0.634393 0.773010 0.000000
vn 0.595699 0.803208 0.000000
vn 0.555570 0.831470 0.000000
vn 0.514103 0.857729 0.000000
vn 0.471397 0.881921 0.000000
vn 0.427555 0.903989 0.000000
vn 0.382683 0.923880 0.000000
vn 0.336890 0.941544 0.000000
vn 0.290285 0.956940 0.000000
vn 0.242980 0.970031 0.000000
vn 0.195090 0.980785 0.000000
vn 0.146730 0.989177 0.000000
vn 0.098017 0.995185 0.000000
vn 0.049068 0.998795 0.000000
vn 0.000000 1.000000 0.000000
vn -0.049068 0.998795 0.000000
vn -0.098017 0.995185 0.000000
vn -0.146730 0.989177 0.000000
vn -0.195090 0.980785 0.000000
vn -0.242980 0.970031 0.000000
vn -0.290285 0.956940 0.000000
vn -0.336890 0.941544 0.000000
vn -0.382683 0.923880 0.000000
vn -0.427555 0.903989 0.000000
vn -0.471397 0.881921 0.000000
vn -0.514103 0.857729 0.000000
vn -0.555570 0.831470 0.000000
vn -0.595699 0.803208 0.000000
vn -0.634393 0.773010 0.000000
vn -0.671559 0.740951 0.000000
vn -0.707107 0.707107 0.000000
vn -0.740951 0.671559 0.000000
vn -0.773010 0.634393 0.000000
vn -0.803208 0.595699 0.000000
vn -0.831470 0.555570 0.000000
vn -0.857729 0.514103 0.000000
vn -0.881921 0.471397 0.000000
vn -0.903989 0.427555 0.000000
vn -0.923880 0.382683 0.000000
vn -0.941544 0.336890 0.000000
vn -0.956940 0.290285 0.000000
vn -0.970031 0.242980 0.000000
vn -0.980785 0.195090 0.000000
vn -0.989177 0.146730 0.000000
vn -0.995185 0.098017 0.000000
vn -0.998795 0.049068 0.000000
vn -1.000000 0.000000 0.000000
vn -0.998795 -0.049068 0.000000
vn -0.995185 -0.098017 0.000000
vn -0.989177 -0.146730 0.000000
vn -0.980785 -0.195090 0.000000
vn -0.970031 -0.242980 0.000000
vn -0.956940 -0.290285 0.000000
vn -0.941544 -0.336890 0.000000
vn -0.923880 -0.382683 0.000000
vn -0.903989 -0.427555 0.000000
vn -0.881921 -0.471397 0.000000
vn -0.857729 -0.514103 0.000000
vn -0.831470 -0.555570 0.000000
vn -0.803208 -0.595699 0.000000
vn -0.773010 -0.634393 0.000000
vn -0.740951 -0.671559 0.000000
vn -0.707107 -0.707107 0.000000
vn -0.671559 -0.740951 0.000000
vn -0.634393 -0.773010 0.000000
vn -0.595699 -0.803208 0.000000
vn -0.555570 -0.831470 0.000000
vn -0.514103 -0.857729 0.000000
vn -0.471397 -0.881921 0.000000
vn -0.427555 -0.903989 0.000000
vn -0.382683 -0.923880 0.000000
vn -0.336890 -0.941544 0.000000
vn -0.290285 -0.956940 0.000000
vn -0.242980 -0.970031 0.000000
vn -0.195090 -0.980785 0.000000
vn -0.146730 -0.989177 0.000000
vn -0.098017 -0.995185 0.000000
vn -0.049068 -0.998795 0.000000
vn -0.000000 -1.000000 0.000000
vn 0.049068 -0.998795 0.000000
vn 0.098017 -0.995185 0.000000
vn 0.146730 -0.989177 0.000000
vn 0.195090 -0.980785 0.000000
vn 0.242980 -0.970031 0.000000
vn 0.290285 -0.956940 0.000000
vn 0.336890 -0.941544 0.000000
vn 0.382683 -0.923880 0.000000
vn 0.427555 -0.903989 0.000000
vn 0.471397 -0.881921 0.000000
vn 0.514103 -0.857729 0.000000
vn 0.555570 -0.831470 0.000000
vn 0.595699 -0.803208 0.000000
vn 0.634393 -0.773010 0.000000
vn 0.671559 -0.740951 0.000000
vn 0.707107 -0.707107 0.000000
vn 0.740951 -0.671559 0.000000
vn 0.773010 -0.634393 0.000000
vn 0.803208 -0.595699 0.000000
vn 0.831470 -0.555570 0.000000
vn 0.857729 -0.514103 0.000000
vn 0.881921 -0.471397 0.000000
vn 0.903989 -0.427555 0.000000
vn 0.923880 -0.382683 0.000000
vn 0.941544 -0.336890 0.000000
vn 0.956940 -0.290285 0.000000
vn 0.970031 -0.242980 0.000000
vn 0.980785 -0.195090 0.000000
vn 0.989177 -0.146730 0.000000
vn 0.995185 -0.098017 0.000000
vn 0.998795 -0.049068 0.000000
vn 1.000000 -0.000000 0.000000
f 1/1/1 2/2/1 4/4/2
f 1/1/1 4/4/2 3/3/2
f 3/3/2 4/4/2 6/6/3
f 3/3/2 6/6/3 5/5/3
f 5/5/3 6/6/3 8/8/4
f 5/5/3 8/8/4 7/7/4
f 7/7/4 8/8/4 10/10/5
f 7/7/4 10/10/5 9/9/5
f 9/9/5 10/10/5 12/12/6
f 9/9/5 12/12/6 11/11/6
f 11/11/6 12/12/6 14/14/7
f 11/11/6 14/14/7 13/13/7
f 13/13/7 14/14/7 16/16/8
f 13/13/7 16/16/8 15/15/8
f 15/15/8 16/16/8 18/18/9
f 15/15/8 18/18/9 17/17/9
f 17/17/9 18/18/9 20/20/10
f 17/17/9 20/20/10 19/19/10
f 19/19/10 20/20/10 22/22/11
f 19/19/10 22/22/11 21/21/11
f 21/21/11 22/22/11 24/24/12
f 21/21/11 24/24/12 23/23/12
f 23/23/12 24/24/12 26/26/13
f 23/23/12 26/26/13 25/25/13
f 25/25/13 26/26/13 28/28/14
f 25/25/13 28/28/14 27/27/14
f 27/27/14 28/28/14 30/30/15
f 27/27/14 30/30/15 29/29/15
f 29/29/15 30/30/15 32/32/16
f 29/29/15 32/32/16 31/31/16
f 31/31/16 32/32/16 34/34/17
f 31/31/16 34/34/17 33/33/17
f 33/33/17 34/34/17 36/36/18
f 33/33/17 36/36/18 35/35/18
f 35/35/18 36/36/18 38/38/19
f 35/35/18 38/38/19 37/37/19
f 37/37/19 38/38/19 40/40/20
f 37/37/19 40/40/20 39/39/20
f 39/39/20 40/40/20 42/42/21
f 39/39/20 42/42/21 41/41/21
f 41/41/21 42/42/21 44/44/22
f 41/41/21 44/44/22 43/43/22
f 43/43/22 44/44/22 46/46/23
f 43/43/22 46/46/23 45/45/23
f 45/45/23 46/46/23 48/48/24
f 45/45/23 48/48/24 47/47/24
f 47/47/24 48/48/24 50/50/25
f 47/47/24 50/50/25 49/49/25
f 49/49/25 50/50/25 52/52/26
f 49/49/25 52/52/26 51/51/26
f 51/51/26 52/52/26 54/54/27
f 51/51/26 54/54/27 53/53/27
f 53/53/27 54/54/27 56/56/28
f 53/53/27 56/56/28 55/55/28
f 55/55/28 56/56/28 58/58/29
f 55/55/28 58/58/29 57/57/29
f 57/57/29 58/58/29 60/60/30
f 57/57/29 60/60/30 59/59/30
f 59/59/30 60/60/30 62/62/31
f 59/59/30 62/62/31 61/61/31
f 61/61/31 62/62/31 64/64/32
f 61/61/31 64/64/32 63/63/32
f 63/63/32 64/64/32 66/66/33
f 63/63/32 66/66/33 65/65/33
f 65/65/33 66/66/33 68/68/34
f 65/65/33 68/68/34 67/67/34
f 67/67/34 68/68/34 70/70/35
f 67/67/34 70/70/35 69/69/35
f 69/69/35 70/70/35 72/72/36
f 69/69/35 72/72/36 71/71/36
f 71/71/36 72/72/36 74/74/37
f 71/71/36 74/74/37 73/73/37
f 73/73/37 74/74/37 76/76/38
f 73/73/37 76/76/38 75/75/38
f 75/75/38 76/76/38 78/78/39
f 75/75/38 78/78/39 77/77/39
f 77/77/39 78/78/39 80/80/40
f 77/77/39 80/80/40 79/79/40
f 79/79/40 80/80/40 82/82/41
f 79/79/40 82/82/41 81/81/41
f 81/81/41 82/82/41 84/84/42
f 81/81/41 84/84/42 83/83/42
f 83/83/42 84/84/42 86/86/43
f 83/83/42 86/86/43 85/85/43
f 85/85/43 86/86/43 88/88/44
f 85/85/43 88/88/44 87/87/44
f 87/87/44 88/88/44 90/90/45
f 87/87/44 90/90/45 89/89/45
f 89/89/45 90/90/45 92/92/46
f 89/89/45 92/92/46 91/91/46
f 91/91/46 92/92/46 94/94/47
f 91/91/46 94/94/47 93/93/47
f 93/93/47 94/94/47 96/96/48
f 93/93/47 96/96/48 95/95/48
f 95/95/48 96/96/48 98/98/49
f 95/95/48 98/98/49 97/97/49
f 97/97/49 98/98/49 100/100/50
f 97/97/49 100/100/50 99/99/50
f 99/99/50 100/100/50 102/102/51
f 99/99/50 102/102/51 101/101/51
f 101/101/51 102/102/51 104/104/52
f 101/101/51 104/104/52 103/103/52
f 103/103/52 104/104/52 106/106/53
f 103/103/52 106/106/53 105/105/53
f 105/105/53 106/106/53 108/108/54
f 105/105/53 108/108/54 107/107/54
f 107/107/54 108/108/54 110/110/55
f 107/107/54 110/110/55 109/109/55
f 109/109/55 110/110/55 112/112/56
f 109/109/55 112/112/56 111/111/56
f 111/111/56 112/112/56 114/114/57
f 111/111/56 114/114/57 113/113/57
f 113/113/57 114/114/57 116/116/58
f 113/113/57 116/116/58 115/115/58
f 115/115/58 116/116/58 118/118/59
f 115/115/58 118/118/59 117/117/59
f 117/117/59 118/118/59 120/120/60
f 117/117/59 120/120/60 119/119/60
f 119/119/60 120/120/60 122/122/61
f 119/119/60 122/122/61 121/121/61
f 121/121/61 122/122/61 124/124/62
f 121/121/61 124/124/62 123/123/62
f 123/123/62 124/124/62 126/126/63
f 123/123/62 126/126/63 125/125/63
f 125/125/63 126/126/63 128/128/64
f 125/125/63 128/128/64 127/127/64
f 127/127/64 128/128/64 130/130/65
f 127/127/64 130/130/65 129/129/65
f 129/129/65 130/130/65 132/132/66
f 129/129/65 132/132/66 131/131/66
f 131/131/66 132/132/66 134/134/67
f 131/131/66 134/134/67 133/133/67
f 133/133/67 134/134/67 136/136/68
f 133/133/67 136/136/68 135/135/68
f 135/135/68 136/136/68 138/138/69
f 135/135/68 138/138/69 137/137/69
f 137/137/69 138/138/69 140/140/70
f 137/137/69 140/140/70 139/139/70
f 139/139/70 140/140/70 142/142/71
f 139/139/70 142/142/71 141/141/71
f 141/141/71 142/142/71 144/144/72
f 141/141/71 144/144/72 143/143/72
f 143/143/72 144/144/72 146/146/73
f 143/143/72 146/146/73 145/145/73
f 145/145/73 146/146/73 148/148/74
f 145/145/73 148/148/74 147/147/74
f 147/147/74 148/148/74 150/150/75
f 147/147/74 150/150/75 149/149/75
f 149/149/75 150/150/75 152/152/76
f 149/149/75 152/152/76 151/151/76
f 151/151/76 152/152/76 154/154/77
f 151/151/76 154/154/77 153/153/77
f 153/153/77 154/154/77 156/156/78
f 153/153/77 156/156/78 155/155/78
f 155/155/78 156/156/78 158/158/79
f 155/155/78 158/158/79 157/157/79
f 157/157/79 158/158/79 160/160/80
f 157/157/79 160/160/80 159/159/80
f 159/159/80 160/160/80 162/162/81
f 159/159/80 162/162/81 161/161/81
f 161/161/81 162/162/81 164/164/82
f 161/161/81 164/164/82 163/163/82
f 163/163/82 164/164/82 166/166/83
f 163/163/82 166/166/83 165/165/83
f 165/165/83 166/166/83 168/168/84
f 165/165/83 168/168/84 167/167/84
f 167/167/84 168/168/84 170/170/85
f 167/167/84 170/170/85 169/169/85
f 169/169/85 170/170/85 172/172/86
f 169/169/85 172/172/86 171/171/86
f 171/171/86 172/172/86 174/174/87
f 171/171/86 174/174/87 173/173/87
f 173/173/87 174/174/87 176/176/88
f 173/173/87 176/176/88 175/175/88
f 175/175/88 176/176/88 178/178/89
f 175/175/88 178/178/89 177/177/89
f 177/177/89 178/178/89 180/180/90
f 177/177/89 180/180/90 179/179/90
f 179/179/90 180/180/90 182/182/91
f 179/179/90 182/182/91 181/181/91
f 181/181/91 182/182/91 184/184/92
f 181/181/91 184/184/92 183/183/92
f 183/183/92 184/184/92 186/186/93
f 183/183/92 186/186/93 185/185/93
f 185/185/93 186/186/93 188/188/94
f 185/185/93 188/188/94 187/187/94
f 187/187/94 188/188/94 190/190/95
f 187/187/94 190/190/95 189/189/95
f 189/189/95 190/190/95 192/192/96
f 189/189/95 192/192/96 191/191/96
f 191/191/96 192/192/96 194/194/97
f 191/191/96 194/194/97 193/193/97
f 193/193/97 194/194/97 196/196/98
f 193/193/97 196/196/98 195/195/98
f 195/195/98 196/196/98 198/198/99
f 195/195/98 198/198/99 197/197/99
f 197/197/99 198/198/99 200/200/100
f 197/197/99 200/200/100 199/199/100
f 199/199/100 200/200/100 202/202/101
f 199/199/100 202/202/101 201/201/101
f 201/201/101 202/202/101 204/204/102
f 201/201/101 204/204/102 203/203/102
f 203/203/102 204/204/102 206/206/103
f 203/203/102 206/206/103 205/205/103
f 205/205/103 206/206/103 208/208/104
f 205/205/103 208/208/104 207/207/104
f 207/207/104 208/208/104 210/210/105
f 207/207/104 210/210/105 209/209/105
f 209/209/105 210/210/105 212/212/106
f 209/209/105 212/212/106 211/211/106
f 211/211/106 212/212/106 214/214/107
f 211/211/106 214/214/107 213/213/107
f 213/213/107 214/214/107 216/216/108
f 213/213/107 216/216/108 215/215/108
f 215/215/108 216/216/108 218/218/109
f 215/215/108 218/218/109 217/217/109
f 217/217/109 218/218/109 220/220/110
f 217/217/109 220/220/110 219/219/110
f 219/219/110 220/220/110 222/222/111
f 219/219/110 222/222/111 221/221/111
f 221/221/111 222/222/111 224/224/112
f 221/221/111 224/224/112 223/223/112
f 223/223/112 224/224/112 226/226/113
f 223/223/112 226/226/113 225/225/113
f 225/225/113 226/226/113 228/228/114
f 225/225/113 228/228/114 227/227/114
f 227/227/114 228/228/114 230/230/115
f 227/227/114 230/230/115 229/229/115
f 229/229/115 230/230/115 232/232/116
f 229/229/115 232/232/116 231/231/116
f 231/231/116 232/232/116 234/234/117
f 231/231/116 234/234/117 233/233/117
f 233/233/117 234/234/117 236/236/118
f 233/233/117 236/236/118 235/235/118
f 235/235/118 236/236/118 238/238/119
f 235/235/118 238/238/119 237/237/119
f 237/237/119 238/238/119 240/240/120
f 237/237/119 240/240/120 239/239/120
f 239/239/120 240/240/120 242/242/121
f 239/239/120 242/242/121 241/241/121
f 241/241/121 242/242/121 244/244/122
f 241/241/121 244/244/122 243/243/122
f 243/243/122 244/244/122 246/246/123
f 243/243/122 246/246/123 245/245/123
f 245/245/123 246/246/123 248/248/124
f 245/245/123 248/248/124 247/247/124
f 247/247/124 248/248/124 250/250/125
f 247/247/124 250/250/125 249/249/125
f 249/249/125 250/250/125 252/252/126
f 249/249/125 252/252/126 251/251/126
f 251/251/126 252/252/126 254/254/127
f 251/251/126 254/254/127 253/253/127
f 253/253/127 254/254/127 256/256/128
f 253/253/127 256/256/128 255/255/128
f 255/255/128 256/256/128 258/258/129
f 255/255/128 258/258/129 257/257/129
